<svg width="24" height="24" viewBox="0 0 24 24" fill="none" xmlns="http://www.w3.org/2000/svg">
<path d="M12 1C5.93419 1 1 5.93485 1 12.0004C1 18.0659 5.93419 23 12 23C18.0655 23 23 18.0659 23 12.0004C23 5.93485 18.0656 1 12 1ZM12 21.2649C6.89117 21.2649 2.73506 17.1088 2.73506 12.0003C2.73506 6.89117 6.89117 2.73506 12 2.73506C17.1088 2.73506 21.2649 6.89117 21.2649 12.0003C21.2649 17.1088 17.1088 21.2649 12 21.2649Z" fill="#CB9C8D"/>
<path d="M10.6142 10.4794C10.6142 9.937 11.4075 9.84437 12.0957 9.84437C12.7443 9.84437 13.6306 10.1484 14.3716 10.5325L14.5169 9.03747C14.1463 8.82559 13.2865 8.57416 12.4133 8.52161L12.6249 7H11.2092L11.4211 8.52161C9.5955 8.69336 9 9.7517 9 10.6382C9 12.874 13.1671 12.3982 13.1671 13.7736C13.1671 14.29 12.678 14.4748 11.8178 14.4748C10.6538 14.4748 9.78028 14.0651 9.3308 13.6414L9.10566 15.3218C9.52941 15.5732 10.3889 15.7981 11.4211 15.8512L11.2092 17.3197H12.6249L12.4133 15.8377C14.5565 15.6523 14.9401 14.5144 14.9401 13.7606C14.9401 11.1015 10.6142 11.7626 10.6142 10.4794Z" fill="#CB9C8D"/>
</svg>
