<?xml version="1.0" encoding="utf-8"?>
<!-- Generator: Adobe Illustrator 24.0.1, SVG Export Plug-In . SVG Version: 6.00 Build 0)  -->
<svg version="1.1" id="Layer_1" xmlns="http://www.w3.org/2000/svg" xmlns:xlink="http://www.w3.org/1999/xlink" x="0px" y="0px"
	 viewBox="0 0 512 512" style="enable-background:new 0 0 512 512;" xml:space="preserve">
<style type="text/css">
	.st0{fill:#b0c1d1;}
</style>
<g>
	<path class="st0" d="M287.88,136.47V1H88.66C75.41,1,64.75,11.66,64.75,24.91v462.19c0,13.25,10.66,23.91,23.91,23.91h334.69
		c13.25,0,23.91-10.66,23.91-23.91V160.38H311.78C298.63,160.38,287.88,149.62,287.88,136.47z M351.63,371.55
		c0,6.57-5.38,11.95-11.95,11.95H172.33c-6.57,0-11.95-5.38-11.95-11.95v-7.97c0-6.57,5.38-11.95,11.95-11.95h167.34
		c6.57,0,11.95,5.38,11.95,11.95V371.55z M351.63,307.8c0,6.57-5.38,11.95-11.95,11.95H172.33c-6.57,0-11.95-5.38-11.95-11.95v-7.97
		c0-6.57,5.38-11.95,11.95-11.95h167.34c6.57,0,11.95,5.38,11.95,11.95V307.8z M351.63,236.08v7.97c0,6.57-5.38,11.95-11.95,11.95
		H172.33c-6.57,0-11.95-5.38-11.95-11.95v-7.97c0-6.57,5.38-11.95,11.95-11.95h167.34C346.25,224.13,351.63,229.5,351.63,236.08z
		 M447.25,122.42v6.08h-127.5V1h6.08c6.38,0,12.45,2.49,16.93,6.97l97.52,97.62C444.76,110.07,447.25,116.15,447.25,122.42z"/>
</g>
</svg>
