<?xml version="1.0" encoding="utf-8"?>
<!-- Generator: Adobe Illustrator 24.0.1, SVG Export Plug-In . SVG Version: 6.00 Build 0)  -->
<svg version="1.1" id="Layer_1" xmlns="http://www.w3.org/2000/svg" xmlns:xlink="http://www.w3.org/1999/xlink" x="0px" y="0px"
	 viewBox="0 0 512 512" style="enable-background:new 0 0 512 512;" xml:space="preserve">
<style type="text/css">
	.st0{fill:#b0c1d1;}
</style>
<path class="st0" d="M351.63,256c0,22.11-1.2,43.43-3.29,63.75H163.66c-2.19-20.32-3.29-41.64-3.29-63.75s1.2-43.43,3.29-63.75
	h184.68C350.53,212.57,351.63,233.89,351.63,256z M380.31,192.25h122.62c5.28,20.42,8.07,41.74,8.07,63.75s-2.79,43.33-8.07,63.75
	H380.31c2.09-20.52,3.19-41.84,3.19-63.75S382.4,212.77,380.31,192.25z M492.47,160.38H376.23
	c-9.96-63.65-29.68-116.94-55.08-151.01c77.99,20.62,141.45,77.2,171.23,151.01H492.47z M343.96,160.38H168.04
	c6.08-36.26,15.44-68.33,26.89-94.33c10.46-23.51,22.11-40.54,33.37-51.3C239.46,4.19,248.73,1,256,1s16.54,3.19,27.69,13.75
	c11.26,10.76,22.91,27.79,33.37,51.3C328.62,91.94,337.98,124.02,343.96,160.38z M135.77,160.38H19.53
	C49.41,86.56,112.76,29.99,190.86,9.37C165.46,43.43,145.73,96.72,135.77,160.38L135.77,160.38z M9.07,192.25h122.62
	c-2.09,20.52-3.19,41.84-3.19,63.75s1.1,43.23,3.19,63.75H9.07C3.79,299.33,1,278.01,1,256S3.79,212.67,9.07,192.25z M194.94,445.86
	c-11.55-25.9-20.82-57.97-26.89-94.23h175.91c-6.08,36.26-15.44,68.33-26.89,94.23c-10.46,23.51-22.11,40.54-33.37,51.3
	C272.54,507.81,263.27,511,256,511c-7.27,0-16.54-3.19-27.69-13.75c-11.26-10.76-22.91-27.79-33.37-51.3V445.86z M135.77,351.63
	c9.96,63.65,29.68,116.94,55.08,151.01c-78.09-20.62-141.45-77.2-171.33-151.01H135.77z M492.47,351.63
	c-29.88,73.81-93.23,130.39-171.23,151.01c25.4-34.07,45.02-87.36,55.08-151.01H492.47L492.47,351.63z"/>
</svg>
