<?xml version="1.0" encoding="utf-8"?>
<!-- Generator: Adobe Illustrator 24.0.1, SVG Export Plug-In . SVG Version: 6.00 Build 0)  -->
<svg version="1.1" id="Layer_1" xmlns="http://www.w3.org/2000/svg" xmlns:xlink="http://www.w3.org/1999/xlink" x="0px" y="0px"
	 viewBox="0 0 512 512" style="enable-background:new 0 0 512 512;" xml:space="preserve">
<style type="text/css">
	.st0{fill:#b0c1d1;}
</style>
<path class="st0" d="M1,1v510h510V1H1z M424.71,121.78l-27.32,26.18c-2.39,1.82-3.53,4.78-3.07,7.63v192.73
	c-0.46,2.96,0.68,5.92,3.07,7.63l26.75,26.18v5.81H289.81v-5.58l27.66-26.87c2.73-2.73,2.73-3.53,2.73-7.63V192.02l-76.96,195.35
	h-10.36L143.3,192.02v130.92c-0.8,5.46,1.14,11.04,5.01,15.03l35.97,43.6v5.81H82.05v-5.81l35.97-43.6
	c3.87-3.98,5.58-9.56,4.67-15.03V171.53c0.46-4.21-1.14-8.31-4.33-11.16l-31.99-38.59v-5.81h99.38l76.73,168.48L330,116.09h94.71
	V121.78z"/>
</svg>
