<svg width="24" height="24" viewBox="0 0 24 24" fill="none" xmlns="http://www.w3.org/2000/svg">
<path d="M4 9.00019H17L15.4 10.2002C15.2949 10.279 15.2064 10.3777 15.1395 10.4907C15.0726 10.6037 15.0286 10.7288 15.0101 10.8588C14.9915 10.9888 14.9987 11.1212 15.0313 11.2484C15.0639 11.3756 15.1212 11.4951 15.2 11.6002C15.2931 11.7244 15.4139 11.8252 15.5528 11.8946C15.6916 11.964 15.8448 12.0002 16 12.0002C16.2164 12.0002 16.4269 11.93 16.6 11.8002L20.6 8.80019C20.7223 8.70686 20.8214 8.58658 20.8897 8.44869C20.9579 8.3108 20.9934 8.15903 20.9934 8.00519C20.9934 7.85134 20.9579 7.69957 20.8897 7.56169C20.8214 7.4238 20.7223 7.30351 20.6 7.21019L16.74 4.21019C16.5305 4.04708 16.2647 3.97389 16.0013 4.0067C15.7378 4.03952 15.4981 4.17567 15.335 4.38519C15.1719 4.59471 15.0987 4.86044 15.1315 5.12393C15.1643 5.38742 15.3005 5.62708 15.51 5.79019L17.08 7.00019H4C3.73478 7.00019 3.48043 7.10555 3.29289 7.29308C3.10536 7.48062 3 7.73497 3 8.00019C3 8.26541 3.10536 8.51976 3.29289 8.7073C3.48043 8.89483 3.73478 9.00019 4 9.00019ZM20 16.0002H7L8.6 14.8002C8.81217 14.6411 8.95244 14.4042 8.98995 14.1416C9.02746 13.8791 8.95913 13.6124 8.8 13.4002C8.64087 13.188 8.40397 13.0477 8.14142 13.0102C7.87887 12.9727 7.61217 13.0411 7.4 13.2002L3.4 16.2002C3.27769 16.2935 3.17857 16.4138 3.11034 16.5517C3.04211 16.6896 3.00661 16.8413 3.00661 16.9952C3.00661 17.149 3.04211 17.3008 3.11034 17.4387C3.17857 17.5766 3.27769 17.6969 3.4 17.7902L7.26 20.7902C7.43455 20.9257 7.64905 20.9995 7.87 21.0002C8.02272 20.9998 8.17332 20.9645 8.31026 20.8969C8.4472 20.8293 8.56684 20.7312 8.66 20.6102C8.82239 20.4017 8.89567 20.1374 8.86381 19.8751C8.83196 19.6128 8.69757 19.3737 8.49 19.2102L6.92 18.0002H20C20.2652 18.0002 20.5196 17.8948 20.7071 17.7073C20.8946 17.5198 21 17.2654 21 17.0002C21 16.735 20.8946 16.4806 20.7071 16.2931C20.5196 16.1055 20.2652 16.0002 20 16.0002Z" fill="#1ADCAB"/>
</svg>
