<?xml version="1.0" encoding="utf-8"?>
<!-- Generator: Adobe Illustrator 24.0.1, SVG Export Plug-In . SVG Version: 6.00 Build 0)  -->
<svg version="1.1" id="Layer_1" xmlns="http://www.w3.org/2000/svg" xmlns:xlink="http://www.w3.org/1999/xlink" x="0px" y="0px"
	 viewBox="0 0 512 512" style="enable-background:new 0 0 512 512;" xml:space="preserve">
<style type="text/css">
	.st0{fill:#b0c1d1;}
</style>
<path class="st0" d="M256,1C115.17,1,1,115.17,1,256c0,140.83,114.17,255,255,255c140.83,0,255-114.17,255-255
	C511,115.17,396.83,1,256,1z M380.31,163.17c-1.45,23.42-44.88,198.21-44.88,198.21s-2.6,10.23-11.91,10.58
	c-3.39,0.13-7.52-0.56-12.44-4.8c-9.81-8.44-32.54-24.57-53.66-39.15c-6.38,5.36-19.12,16.38-32.29,29.55
	c-18.67,18.66-16.27,0-16.27,0l5.73-60.93l0.14,0.09c0.26-0.62,0.68-1.13,0.68-1.13s109.97-97.75,112.9-108.01
	c0.23-0.79-0.62-1.19-1.78-0.84c-7.31,2.69-133.92,82.64-147.9,91.47c-0.82,0.52-3.11,0.18-3.11,0.18l-61.42-20.01
	c0,0-7.33-2.98-4.98-9.73c0.49-1.39,1.47-2.58,4.4-4.62c13.61-9.49,251.94-95.15,251.94-95.15s6.73-2.27,10.71-0.76
	c1.82,0.69,2.98,1.47,3.96,4.31c0.36,1.03,0.56,3.23,0.53,5.42C380.65,159.41,380.45,160.88,380.31,163.17z"/>
</svg>
