<svg width="24" height="24" viewBox="0 0 24 24" fill="none" xmlns="http://www.w3.org/2000/svg">
<path d="M12 1C5.925 1 1 5.925 1 12C1 18.0753 5.925 23 12 23C18.0753 23 23 18.0753 23 12C23 5.925 18.0753 1 12 1ZM12 21C7.0295 21 3 16.9705 3 12C3 7.0295 7.0295 3 12 3C16.9705 3 21 7.0295 21 12C21 16.9705 16.9705 21 12 21Z" fill="#1ADCAB"/>
<path d="M13 11.5857V6C13 5.44775 12.5523 5 12 5C11.4478 5 11 5.44775 11 6V12C11 12.0022 11.0007 12.0045 11.0007 12.0067C11.001 12.07 11.0072 12.1332 11.0197 12.1955C11.0257 12.2262 11.037 12.254 11.0457 12.284C11.0555 12.317 11.063 12.3505 11.0763 12.3827C11.0908 12.4172 11.1103 12.4487 11.1283 12.4812C11.1418 12.5062 11.1525 12.5312 11.1683 12.555C11.205 12.6102 11.2467 12.662 11.2935 12.7082L14.1213 15.5362C14.5118 15.9267 15.1455 15.9267 15.5358 15.5362C15.9263 15.1457 15.9263 14.512 15.5358 14.1222L13 11.5857Z" fill="#1ADCAB"/>
</svg>
