<svg id="Layer_1" data-name="Layer 1" xmlns="http://www.w3.org/2000/svg" width="767.065" height="82.404"><defs><style>.cls-1{fill:#21415b}.cls-3{fill:#fff}</style></defs><rect class="cls-1" x="166.72" width="17.755" height="82.404" rx="8.877"/><rect class="cls-1" x="222.229" width="17.755" height="82.404" rx="8.877"/><rect x="194.475" y="24.491" width="17.755" height="57.914" rx="8.877" style="fill:#007cb4"/><path class="cls-3" d="M.843 81.638V71.9h41.779a8.423 8.423 0 0 0 6.017-1.993 6.937 6.937 0 0 0 2.108-5.289 6.719 6.719 0 0 0-2.108-5.4 9 9 0 0 0-6.017-1.8h-25.6a20.116 20.116 0 0 1-7.091-1.188 15.333 15.333 0 0 1-5.366-3.3 14.479 14.479 0 0 1-3.372-5.021A16.673 16.673 0 0 1 0 41.546 17.185 17.185 0 0 1 1.112 35.3a13.345 13.345 0 0 1 3.3-4.944 15.6 15.6 0 0 1 5.4-3.258 21.175 21.175 0 0 1 7.359-1.188h40.015v9.735H17.171a7.144 7.144 0 0 0-5.213 1.8 6.708 6.708 0 0 0-1.839 5.021A6.5 6.5 0 0 0 12 47.449a7.146 7.146 0 0 0 5.1 1.763h25.522q8.508 0 12.916 3.986t4.408 12.112a19.155 19.155 0 0 1-1.073 6.515A14.072 14.072 0 0 1 55.653 77a14.713 14.713 0 0 1-5.4 3.411 21.607 21.607 0 0 1-7.627 1.227ZM118.128 25.908h9.5v31.123a33.838 33.838 0 0 1-1.686 11.23 18.428 18.428 0 0 1-5.289 7.934 22.991 22.991 0 0 1-9.314 4.676A54.034 54.034 0 0 1 97.507 82.4a53.675 53.675 0 0 1-13.76-1.533 22.984 22.984 0 0 1-9.314-4.676 18.419 18.419 0 0 1-5.289-7.934 33.838 33.838 0 0 1-1.686-11.23V25.908H77.5v31.123a22.124 22.124 0 0 0 1.035 7.205 10.722 10.722 0 0 0 3.372 4.906 14.879 14.879 0 0 0 6.248 2.8 44.753 44.753 0 0 0 9.659.881 44.766 44.766 0 0 0 9.659-.881 14.884 14.884 0 0 0 6.248-2.8 10.745 10.745 0 0 0 3.372-4.906 22.124 22.124 0 0 0 1.035-7.205ZM136.985 81.638v-55.73h9.735v55.73ZM260.826 81.638V71.9h41.779a8.428 8.428 0 0 0 6.018-1.993 6.94 6.94 0 0 0 2.107-5.289 6.721 6.721 0 0 0-2.107-5.4 9.006 9.006 0 0 0-6.018-1.8H277a20.111 20.111 0 0 1-7.09-1.188 15.337 15.337 0 0 1-5.367-3.3 14.482 14.482 0 0 1-3.373-5.021 16.692 16.692 0 0 1-1.187-6.363A17.185 17.185 0 0 1 261.1 35.3a13.343 13.343 0 0 1 3.295-4.944A15.618 15.618 0 0 1 269.8 27.1a21.177 21.177 0 0 1 7.36-1.188h40.01v9.735h-40.015a7.147 7.147 0 0 0-5.214 1.8 6.708 6.708 0 0 0-1.84 5.021 6.5 6.5 0 0 0 1.879 4.983 7.145 7.145 0 0 0 5.1 1.763h25.528q8.51 0 12.916 3.986t4.408 12.112a19.155 19.155 0 0 1-1.073 6.515A14.083 14.083 0 0 1 315.637 77a14.717 14.717 0 0 1-5.4 3.411 21.6 21.6 0 0 1-7.627 1.227ZM346.145 81.638V35.643h-21.157v-9.735h52.05v9.735h-21.157v46ZM431.08 81.638l-8.355-14.028h-26.37l4.6-7.9h17.094L405.63 38.863l-25.3 42.775h-11.112l32.042-53.354a7.405 7.405 0 0 1 1.994-2.3 4.543 4.543 0 0 1 2.759-.843 4.379 4.379 0 0 1 2.722.843 7.69 7.69 0 0 1 1.954 2.3l32.12 53.354ZM500.532 81.638l-14.1-15.485h-20.856v-8.586H488.8q5.289 0 7.972-2.874t2.684-8.317q0-5.443-2.8-8.088t-7.856-2.645h-30.352v46h-9.66V25.908H488.8a23.976 23.976 0 0 1 8.509 1.418 17.471 17.471 0 0 1 6.363 4.063 17.671 17.671 0 0 1 3.986 6.4 24.318 24.318 0 0 1 1.38 8.432 21.209 21.209 0 0 1-3.029 11.691 16.925 16.925 0 0 1-8.469 6.783l16.788 16.942ZM536.023 81.638V35.643h-21.157v-9.735h52.051v9.735h-21.158v46ZM623.181 25.908h9.506v31.123A33.89 33.89 0 0 1 631 68.261a18.439 18.439 0 0 1-5.29 7.934 22.987 22.987 0 0 1-9.313 4.676A54.042 54.042 0 0 1 602.56 82.4a53.656 53.656 0 0 1-13.76-1.529 22.961 22.961 0 0 1-9.313-4.676 18.386 18.386 0 0 1-5.29-7.934 33.786 33.786 0 0 1-1.686-11.23V25.908h10.041v31.123a22.153 22.153 0 0 0 1.034 7.205 10.733 10.733 0 0 0 3.374 4.906 14.873 14.873 0 0 0 6.248 2.8 53.39 53.39 0 0 0 19.318 0 14.87 14.87 0 0 0 6.246-2.8 10.733 10.733 0 0 0 3.374-4.906 22.153 22.153 0 0 0 1.034-7.205ZM658.289 66.153v-9.429h22.385q5.133 0 8.01-2.913a10.437 10.437 0 0 0 2.875-7.666 10.278 10.278 0 0 0-2.875-7.665q-2.874-2.835-8.01-2.837h-29.513v46H641.5V25.908h39.173a24.529 24.529 0 0 1 8.624 1.418 17.953 17.953 0 0 1 6.4 3.986 17.045 17.045 0 0 1 3.986 6.248 23.437 23.437 0 0 1 1.38 8.279 23.516 23.516 0 0 1-1.38 8.24A17.565 17.565 0 0 1 689.3 64.658a23.4 23.4 0 0 1-8.624 1.5ZM707.963 81.638V71.9h41.778a8.428 8.428 0 0 0 6.018-1.993 6.94 6.94 0 0 0 2.107-5.289 6.721 6.721 0 0 0-2.107-5.4 9.006 9.006 0 0 0-6.018-1.8h-25.6a20.111 20.111 0 0 1-7.09-1.188 15.324 15.324 0 0 1-5.366-3.3 14.5 14.5 0 0 1-3.374-5.021 16.692 16.692 0 0 1-1.187-6.363 17.185 17.185 0 0 1 1.111-6.248 13.345 13.345 0 0 1 3.3-4.944 15.614 15.614 0 0 1 5.4-3.258 21.181 21.181 0 0 1 7.36-1.188h40.015v9.735h-40.019a7.144 7.144 0 0 0-5.213 1.8 6.7 6.7 0 0 0-1.84 5.021 6.5 6.5 0 0 0 1.878 4.983 7.147 7.147 0 0 0 5.1 1.763h25.527q8.51 0 12.916 3.986t4.408 12.112a19.155 19.155 0 0 1-1.073 6.515A14.083 14.083 0 0 1 762.773 77a14.721 14.721 0 0 1-5.4 3.411 21.609 21.609 0 0 1-7.628 1.227Z"/></svg>